<svg viewBox="683.32 85.69 553.35 737.93" shape-rendering="geometricPrecision" text-rendering="geometricPrecision"
     style="background-color:transparent" xmlns="http://www.w3.org/2000/svg">
    <g clip-path="url(#a)">
        <path d="M1236.675 120.495V788.81c0 19.21-15.693 34.808-35.022 34.808H718.347c-19.329 0-35.022-15.598-35.022-34.808V120.495c0-19.21 15.693-34.808 35.022-34.808h483.306c19.329 0 35.022 15.598 35.022 34.808Z"
              fill="#f4f4f4"/>
        <path d="M158-192v384c0 11.038-8.962 20-20 20h-276c-11.038 0-20-8.962-20-20v-384c0-11.038 8.962-20 20-20h276c11.038 0 20 8.962 20 20Z"
              transform="matrix(1.75111 0 0 1.7404 960 454.652)" fill="none" stroke="#717171" stroke-opacity=".2"
              stroke-linecap="round" stroke-linejoin="round"/>
        <path d="M1168.36 222.382c0 9.426-4.097 17.079-9.142 17.079H954.444c-5.045 0-9.142-7.653-9.142-17.079s4.097-17.079 9.142-17.079h204.774c5.045 0 9.142 7.653 9.142 17.079Z"
              fill="#717171"/>
        <path d="M1168.36 222.382c0 9.426-4.097 17.079-9.142 17.079H954.444c-5.045 0-9.142-7.653-9.142-17.079s4.097-17.079 9.142-17.079h204.774c5.045 0 9.142 7.653 9.142 17.079Z"
              fill="none"/>
        <path d="M1168.36 413.663c0 9.426-7.653 17.079-17.079 17.079H768.72c-9.426 0-17.08-7.653-17.08-17.079s7.654-17.079 17.08-17.079h382.562c9.426 0 17.08 7.653 17.08 17.079h-.002Z"
              fill="#717171"/>
        <path d="M1168.36 413.663c0 9.426-7.653 17.079-17.079 17.079H768.72c-9.426 0-17.08-7.653-17.08-17.079s7.654-17.079 17.08-17.079h382.562c9.426 0 17.08 7.653 17.08 17.079h-.002Z"
              fill="none"/>
        <path d="M1168.36 601.529c0 9.426-7.653 17.079-17.079 17.079H768.72c-9.426 0-17.08-7.653-17.08-17.079s7.654-17.079 17.08-17.079h382.562c9.426 0 17.08 7.653 17.08 17.079h-.002Z"
              fill="#717171"/>
        <path d="M1168.36 601.529c0 9.426-7.653 17.079-17.079 17.079H768.72c-9.426 0-17.08-7.653-17.08-17.079s7.654-17.079 17.08-17.079h382.562c9.426 0 17.08 7.653 17.08 17.079h-.002Z"
              fill="none"/>
        <path d="M1168.36 318.022c0 9.426-4.097 17.079-9.142 17.079H954.444c-5.045 0-9.142-7.653-9.142-17.079s4.097-17.079 9.142-17.079h204.774c5.045 0 9.142 7.653 9.142 17.079Z"
              fill="#717171"/>
        <path d="M1168.36 318.022c0 9.426-4.097 17.079-9.142 17.079H954.444c-5.045 0-9.142-7.653-9.142-17.079s4.097-17.079 9.142-17.079h204.774c5.045 0 9.142 7.653 9.142 17.079Z"
              fill="none"/>
        <path d="M1168.36 509.304c0 9.426-7.653 17.079-17.079 17.079H768.72c-9.426 0-17.08-7.653-17.08-17.079s7.654-17.079 17.08-17.079h382.562c9.426 0 17.08 7.653 17.08 17.079h-.002Z"
              fill="#717171"/>
        <path d="M1168.36 509.304c0 9.426-7.653 17.079-17.079 17.079H768.72c-9.426 0-17.08-7.653-17.08-17.079s7.654-17.079 17.08-17.079h382.562c9.426 0 17.08 7.653 17.08 17.079h-.002Z"
              fill="none"/>
        <path d="M1168.36 697.17c0 9.426-7.653 17.079-17.079 17.079H768.72c-9.426 0-17.08-7.653-17.08-17.079s7.654-17.079 17.08-17.079h382.562c9.426 0 17.08 7.653 17.08 17.079h-.002Z"
              fill="#717171"/>
        <path d="M1168.36 697.17c0 9.426-7.653 17.079-17.079 17.079H768.72c-9.426 0-17.08-7.653-17.08-17.079s7.654-17.079 17.08-17.079h382.562c9.426 0 17.08 7.653 17.08 17.079h-.002Z"
              fill="none"/>
        <path d="M901.932 220.673v109.304c0 9.426-7.653 17.079-17.078 17.079H768.718c-9.425 0-17.078-7.653-17.078-17.08V220.674c0-9.426 7.653-17.079 17.078-17.079h116.136c9.425 0 17.078 7.653 17.078 17.08v-.002Z"
              fill="#717171"/>
        <path d="M901.932 220.673v109.304c0 9.426-7.653 17.079-17.078 17.079H768.718c-9.425 0-17.078-7.653-17.078-17.08V220.674c0-9.426 7.653-17.079 17.078-17.079h116.136c9.425 0 17.078 7.653 17.078 17.08v-.002Z"
              fill="none"/>
        <clipPath id="a">
            <path d="M0 0h1920v1080H0V0Z"/>
        </clipPath>
    </g>
    <defs>
        <linearGradient id="left-to-right">
            <stop offset="0" stop-color="#dd2e44">
                <animate dur="1s" attributeName="offset" fill="freeze" from="0" to="1"/>
            </stop>
            <stop offset="0" stop-color="transparent">
                <animate dur="1s" attributeName="offset" fill="freeze" from="0" to="1"/>
            </stop>
        </linearGradient>
    </defs>
    <path fill="url(#left-to-right)"
          d="m992.405 555.308 111.666-111.657c12.202-12.631 6.151-33.741-10.888-37.994a22.831 22.831 0 0 0-21.375 5.731L960.142 523.045 848.485 411.388c-8.908-8.917-23.356-8.917-32.263 0-8.917 8.908-8.917 23.356 0 32.263l111.657 111.657L815.966 667.23c-12.43 12.394-6.781 33.586 10.167 38.159 1.944.52 3.952.785 5.969.785a22.747 22.747 0 0 0 16.136-6.681l111.913-111.922 111.657 111.657a22.776 22.776 0 0 0 16.136 6.681c17.569 0 28.539-19.02 19.759-34.234a22.996 22.996 0 0 0-3.623-4.71L992.405 555.308Z"/>
</svg>
