<svg xmlns="http://www.w3.org/2000/svg"
     width="2000" height="1207" viewBox="0 0 2000 1207">
    <g transform="matrix(1,0,0,1,-1.2121212121212466,-0.8643453221671962)">
        <svg viewBox="0 0 396 239" data-background-color="#faecdc" preserveAspectRatio="xMidYMid meet" height="1207"
             width="2000" xmlns="http://www.w3.org/2000/svg">
            <g id="tight-bounds" transform="matrix(1,0,0,1,0.2400000000000091,0.17115039933551657)">
                <svg viewBox="0 0 395.52 238.6576992013289" height="238.6576992013289" width="395.52">
                    <g>
                        <svg viewBox="0 0 395.52 238.6576992013289" height="238.6576992013289" width="395.52">
                            <g transform="matrix(1,0,0,1,0,141.88991856688884)">
                                <svg viewBox="0 0 395.52 96.76778063444009" height="96.76778063444009" width="395.52">
                                    <g id="textblocktransform">
                                        <svg viewBox="0 0 395.52 96.76778063444009" height="96.76778063444009"
                                             width="395.52" id="textblock">
                                            <g>
                                                <svg viewBox="0 0 395.52 57.21110423577357" height="57.21110423577357"
                                                     width="395.52">
                                                    <g transform="matrix(1,0,0,1,0,0)">
                                                        <svg width="395.52" viewBox="1.45 -34.2 240.9100114746094 34.85"
                                                             height="57.21110423577357" data-palette-color="#e13f2a">
                                                            <g transform="matrix(1,0,0,1,0,0)">
                                                                <g>
                                                                    <svg width="15.386674316406253"
                                                                         viewBox="3.16 -36.36 69.01 36.36"
                                                                         height="8.107000000000001"
                                                                         data-palette-color="#e13f2a" id="scriptelement"
                                                                         x="226.97333715820312" y="-8.107000000000001">
                                                                        <path d="M3.16 0L3.16-36.36 12.64-36.36 22.66-11.93 23.08-11.93 33.1-36.36 42.58-36.36 42.58 0 35.12 0 35.12-23.67 34.82-23.67 25.41-0.18 20.33-0.18 10.92-23.76 10.62-23.76 10.62 0 3.16 0ZM72.17 0L48.9 0 48.9-36.36 56.58-36.36 56.58-6.34 72.17-6.34 72.17 0Z"
                                                                              opacity="1"
                                                                              transform="matrix(1,0,0,1,0,0)"
                                                                              fill="#ffffff" class="undefined-123"
                                                                              data-fill-palette-color="primary"
                                                                              id="yy-123"></path>
                                                                    </svg>
                                                                </g>
                                                            </g>
                                                            <path d="M5.4 0.65Q4.2 0.65 3.15 0.1 2.1-0.45 1.45-1.4L1.45-1.4 3.8-3Q4.05-2.6 4.5-2.4 4.95-2.2 5.35-2.2L5.35-2.2Q6-2.2 6.5-2.75 7-3.3 7-4L7-4 7-34.2 8.9-34.2 14.45-27.95 30.45-7.55 31.15-6.45 31-34.15 34.1-34.15 34.1 0 33.05 0 10.5-28.15 9.9-29.2 10.1-3.95Q10.1-1.95 8.7-0.65 7.3 0.65 5.4 0.65L5.4 0.65ZM52.8 0.5Q49.05 0.5 46.45-1.05 43.85-2.6 42.52-5.33 41.2-8.05 41.2-11.5L41.2-11.5Q41.2-14.9 42.47-18.1 43.75-21.3 46.32-23.35 48.9-25.4 52.6-25.4L52.6-25.4Q55.05-25.4 57.15-24.45 59.25-23.5 60.47-21.75 61.7-20 61.7-17.7L61.7-17.7Q61.7-14 58.55-11.98 55.4-9.95 49.85-10L49.85-10 44.35-10.05Q44.8-6.2 46.92-4.2 49.05-2.2 52.8-2.2L52.8-2.2Q55.05-2.2 56.97-2.83 58.9-3.45 60.7-4.75L60.7-4.75 62.2-2.75Q60.3-1.25 57.87-0.38 55.45 0.5 52.8 0.5L52.8 0.5ZM50.5-12.6Q58.7-12.6 58.7-17.75L58.7-17.75Q58.7-20.25 56.97-21.48 55.25-22.7 52.75-22.7L52.75-22.7Q49.95-22.7 48.02-21.1 46.1-19.5 45.15-17.15 44.2-14.8 44.2-12.6L44.2-12.6 50.5-12.6ZM67.15-20.8Q66.85-21.7 66.15-22.53 65.45-23.35 64.75-23.75L64.75-23.75 66.15-25.85Q68.9-24 70.05-20.4L70.05-20.4 75.35-4.35 82.1-25 84.9-25 91.65-4.35 98.4-25 101.2-25 93.05-0.05 90.25-0.05 83.5-20.7 76.75-0.05 73.9-0.05 67.15-20.8ZM113.14 0.6Q108.09 0.6 103.74-3.3L103.74-3.3 105.39-5.3Q107.29-3.75 109.17-2.93 111.04-2.1 113.19-2.1L113.19-2.1Q115.89-2.1 117.42-3.38 118.94-4.65 118.94-6.85L118.94-6.85Q118.94-8.25 118.27-9.13 117.59-10 116.47-10.55 115.34-11.1 112.44-12.3L112.44-12.3Q109.79-13.4 108.34-14.2 106.89-15 106.04-16.18 105.19-17.35 105.19-19.15L105.19-19.15Q105.19-22.1 107.29-23.88 109.39-25.65 112.89-25.65L112.89-25.65Q114.69-25.65 116.47-25.15 118.24-24.65 119.49-23.7L119.49-23.7 118.24-21.55Q115.94-22.95 113.04-22.95L113.04-22.95Q110.74-22.95 109.49-22.05 108.24-21.15 108.24-19.5L108.24-19.5Q108.24-18.25 108.92-17.45 109.59-16.65 110.67-16.13 111.74-15.6 114.24-14.6L114.24-14.6Q117.09-13.45 118.67-12.53 120.24-11.6 121.12-10.28 121.99-8.95 121.99-7L121.99-7Q121.99-3.55 119.57-1.48 117.14 0.6 113.14 0.6L113.14 0.6ZM126.64-20.8Q126.34-21.7 125.64-22.53 124.94-23.35 124.24-23.75L124.24-23.75 125.64-25.85Q128.39-24 129.54-20.4L129.54-20.4 134.84-4.35 141.59-25 144.39-25 151.14-4.35 157.89-25 160.69-25 152.54-0.05 149.74-0.05 142.99-20.7 136.24-0.05 133.39-0.05 126.64-20.8ZM168.49-4.2Q168.49-3.5 168.96-3.03 169.44-2.55 170.09-2.55L170.09-2.55Q171.09-2.55 171.54-3.4L171.54-3.4 173.74-1.75Q173.34-0.9 172.34-0.33 171.34 0.25 170.09 0.25L170.09 0.25Q168.09 0.25 166.79-1 165.49-2.25 165.49-4.25L165.49-4.25 165.49-25 168.49-25 168.49-4.2ZM166.84-28.25Q165.99-28.25 165.36-28.88 164.74-29.5 164.74-30.35L164.74-30.35Q164.74-31.25 165.36-31.88 165.99-32.5 166.84-32.5L166.84-32.5Q167.74-32.5 168.36-31.88 168.99-31.25 168.99-30.35L168.99-30.35Q168.99-29.5 168.36-28.88 167.74-28.25 166.84-28.25L166.84-28.25ZM185.29 0.6Q180.24 0.6 175.89-3.3L175.89-3.3 177.54-5.3Q179.44-3.75 181.31-2.93 183.19-2.1 185.34-2.1L185.34-2.1Q188.04-2.1 189.56-3.38 191.09-4.65 191.09-6.85L191.09-6.85Q191.09-8.25 190.41-9.13 189.74-10 188.61-10.55 187.49-11.1 184.59-12.3L184.59-12.3Q181.94-13.4 180.49-14.2 179.04-15 178.19-16.18 177.34-17.35 177.34-19.15L177.34-19.15Q177.34-22.1 179.44-23.88 181.54-25.65 185.04-25.65L185.04-25.65Q186.84-25.65 188.61-25.15 190.39-24.65 191.64-23.7L191.64-23.7 190.39-21.55Q188.09-22.95 185.19-22.95L185.19-22.95Q182.89-22.95 181.64-22.05 180.39-21.15 180.39-19.5L180.39-19.5Q180.39-18.25 181.06-17.45 181.74-16.65 182.81-16.13 183.89-15.6 186.39-14.6L186.39-14.6Q189.24-13.45 190.81-12.53 192.39-11.6 193.26-10.28 194.14-8.95 194.14-7L194.14-7Q194.14-3.55 191.71-1.48 189.29 0.6 185.29 0.6L185.29 0.6ZM209.88 0.5Q206.13 0.5 203.53-1.05 200.93-2.6 199.61-5.33 198.28-8.05 198.28-11.5L198.28-11.5Q198.28-14.9 199.56-18.1 200.83-21.3 203.41-23.35 205.98-25.4 209.68-25.4L209.68-25.4Q212.13-25.4 214.23-24.45 216.33-23.5 217.56-21.75 218.78-20 218.78-17.7L218.78-17.7Q218.78-14 215.63-11.98 212.48-9.95 206.93-10L206.93-10 201.43-10.05Q201.88-6.2 204.01-4.2 206.13-2.2 209.88-2.2L209.88-2.2Q212.13-2.2 214.06-2.83 215.98-3.45 217.78-4.75L217.78-4.75 219.28-2.75Q217.38-1.25 214.96-0.38 212.53 0.5 209.88 0.5L209.88 0.5ZM207.58-12.6Q215.78-12.6 215.78-17.75L215.78-17.75Q215.78-20.25 214.06-21.48 212.33-22.7 209.83-22.7L209.83-22.7Q207.03-22.7 205.11-21.1 203.18-19.5 202.23-17.15 201.28-14.8 201.28-12.6L201.28-12.6 207.58-12.6Z"
                                                                  opacity="1" transform="matrix(1,0,0,1,0,0)"
                                                                  fill="#ffffff" class="wordmark-text-0"
                                                                  data-fill-palette-color="primary" id="text-0"></path>
                                                        </svg>
                                                    </g>
                                                </svg>
                                            </g>
                                            <g transform="matrix(1,0,0,1,37.65528292003653,70.71727287933805)">
                                                <svg viewBox="0 0 244.43135999999998 26.05050775510204"
                                                     height="26.05050775510204" width="244.43135999999998">
                                                    <g transform="matrix(1,0,0,1,0,0)">
                                                        <svg width="244.43135999999998"
                                                             viewBox="4.15 -37 440.95000000000005 47"
                                                             height="26.05050775510204" data-palette-color="#e13f2a">
                                                            <path d="M4.15 10L4.15-25.6 6.9-25.6 6.9-21.5 7.35-21.5Q8.05-23.85 9.78-25.03 11.5-26.2 14.05-26.2L14.05-26.2Q18.75-26.2 21.15-22.78 23.55-19.35 23.55-12.8L23.55-12.8Q23.55-6.25 21.15-2.83 18.75 0.6 14.05 0.6L14.05 0.6Q11.5 0.6 9.78-0.55 8.05-1.7 7.35-4.05L7.35-4.05 6.9-4.05 6.9 10 4.15 10ZM13.4-1.85L13.4-1.85Q16.9-1.85 18.75-4.15 20.6-6.45 20.6-10.55L20.6-10.55 20.6-15.05Q20.6-19.15 18.75-21.45 16.9-23.75 13.4-23.75L13.4-23.75Q12.05-23.75 10.88-23.35 9.7-22.95 8.8-22.2 7.9-21.45 7.4-20.4 6.9-19.35 6.9-18.05L6.9-18.05 6.9-7.55Q6.9-6.25 7.4-5.2 7.9-4.15 8.8-3.4 9.7-2.65 10.88-2.25 12.05-1.85 13.4-1.85ZM32.8 0L30.05 0 30.05-25.6 32.8-25.6 32.8-20.95 33.2-20.95Q33.9-23.1 35.55-24.35 37.2-25.6 39.75-25.6L39.75-25.6 41.35-25.6 41.35-22.9 39.05-22.9Q36.3-22.9 34.55-21.4 32.8-19.9 32.8-17.25L32.8-17.25 32.8 0ZM54.45 0.6L54.45 0.6Q52.2 0.6 50.32-0.18 48.45-0.95 47.1-2.58 45.75-4.2 45.02-6.73 44.3-9.25 44.3-12.8L44.3-12.8Q44.3-16.35 45.02-18.88 45.75-21.4 47.1-23.03 48.45-24.65 50.32-25.43 52.2-26.2 54.45-26.2L54.45-26.2Q59-26.2 61.57-23.05 64.15-19.9 64.15-13.05L64.15-13.05 64.15-12.3 47.25-12.3 47.25-10.55Q47.25-6.3 49.12-4.08 51-1.85 54.45-1.85L54.45-1.85Q57.3-1.85 59.02-3.13 60.75-4.4 61.75-6.95L61.75-6.95 63.65-5.65Q62.55-2.7 60.32-1.05 58.1 0.6 54.45 0.6ZM54.45-23.85L54.45-23.85Q51-23.85 49.12-21.58 47.25-19.3 47.25-15.05L47.25-15.05 47.25-14.4 61.2-14.4 61.2-15.05Q61.2-19.3 59.52-21.58 57.85-23.85 54.45-23.85ZM77.19 0.6L77.19 0.6Q74.19 0.6 72.04-0.58 69.89-1.75 68.29-4.15L68.29-4.15 70.24-5.75Q71.64-3.65 73.29-2.73 74.94-1.8 77.19-1.8L77.19-1.8Q79.74-1.8 81.24-3.05 82.74-4.3 82.74-6.7L82.74-6.7Q82.74-8.8 81.74-9.98 80.74-11.15 78.14-11.6L78.14-11.6 76.14-11.95Q72.64-12.55 70.87-14.18 69.09-15.8 69.09-19.1L69.09-19.1Q69.09-22.75 71.29-24.48 73.49-26.2 76.99-26.2L76.99-26.2Q79.64-26.2 81.59-25.28 83.54-24.35 84.99-22.35L84.99-22.35 83.19-20.7Q80.89-23.8 77.04-23.8L77.04-23.8Q74.49-23.8 73.14-22.65 71.79-21.5 71.79-19.2L71.79-19.2Q71.79-16.95 72.89-15.9 73.99-14.85 76.54-14.4L76.54-14.4 78.49-14.05Q82.14-13.4 83.79-11.75 85.44-10.1 85.44-6.95L85.44-6.95Q85.44-3.35 83.29-1.38 81.14 0.6 77.19 0.6ZM98.24 0.6L98.24 0.6Q95.24 0.6 93.09-0.58 90.94-1.75 89.34-4.15L89.34-4.15 91.29-5.75Q92.69-3.65 94.34-2.73 95.99-1.8 98.24-1.8L98.24-1.8Q100.79-1.8 102.29-3.05 103.79-4.3 103.79-6.7L103.79-6.7Q103.79-8.8 102.79-9.98 101.79-11.15 99.19-11.6L99.19-11.6 97.19-11.95Q93.69-12.55 91.92-14.18 90.14-15.8 90.14-19.1L90.14-19.1Q90.14-22.75 92.34-24.48 94.54-26.2 98.04-26.2L98.04-26.2Q100.69-26.2 102.64-25.28 104.59-24.35 106.04-22.35L106.04-22.35 104.24-20.7Q101.94-23.8 98.09-23.8L98.09-23.8Q95.54-23.8 94.19-22.65 92.84-21.5 92.84-19.2L92.84-19.2Q92.84-16.95 93.94-15.9 95.04-14.85 97.59-14.4L97.59-14.4 99.54-14.05Q103.19-13.4 104.84-11.75 106.49-10.1 106.49-6.95L106.49-6.95Q106.49-3.35 104.34-1.38 102.19 0.6 98.24 0.6ZM142.24 0L139.19 0Q136.44 0 136.44-2.7L136.44-2.7 136.44-4.1 136.03-4.1Q135.39-1.85 133.64-0.63 131.89 0.6 129.24 0.6L129.24 0.6Q125.64 0.6 123.74-1.23 121.84-3.05 121.84-6.75L121.84-6.75Q121.84-10.4 124.09-12.35 126.34-14.3 130.89-14.3L130.89-14.3 136.44-14.3 136.44-17.7Q136.44-20.95 135.03-22.35 133.64-23.75 130.69-23.75L130.69-23.75Q128.44-23.75 126.94-22.73 125.44-21.7 124.49-19.6L124.49-19.6 122.69-21.15Q123.69-23.4 125.71-24.8 127.74-26.2 130.78-26.2L130.78-26.2Q134.94-26.2 137.06-24.15 139.19-22.1 139.19-18L139.19-18 139.19-2.4 142.24-2.4 142.24 0ZM129.84-1.8L129.84-1.8Q131.24-1.8 132.44-2.23 133.64-2.65 134.53-3.45 135.44-4.25 135.94-5.33 136.44-6.4 136.44-7.7L136.44-7.7 136.44-12.2 130.84-12.2Q127.84-12.2 126.26-11.03 124.69-9.85 124.69-7.75L124.69-7.75 124.69-6.15Q124.69-4 126.11-2.9 127.54-1.8 129.84-1.8ZM150.33 0L147.58 0 147.58-25.6 150.33-25.6 150.33-20.95 150.73-20.95Q151.43-23.1 153.08-24.35 154.73-25.6 157.28-25.6L157.28-25.6 158.88-25.6 158.88-22.9 156.58-22.9Q153.83-22.9 152.08-21.4 150.33-19.9 150.33-17.25L150.33-17.25 150.33 0ZM173.08 0L168.43 0Q166.88 0 166.18-0.68 165.48-1.35 165.48-2.9L165.48-2.9 165.48-23.2 161.53-23.2 161.53-25.6 164.18-25.6Q165.13-25.6 165.43-26.08 165.73-26.55 165.73-27.5L165.73-27.5 165.73-32.75 168.23-32.75 168.23-25.6 173.33-25.6 173.33-23.2 168.23-23.2 168.23-2.4 173.08-2.4 173.08 0ZM180.93-32.65L180.93-32.65Q179.93-32.65 179.5-33.1 179.08-33.55 179.08-34.3L179.08-34.3 179.08-35Q179.08-35.75 179.5-36.2 179.93-36.65 180.93-36.65L180.93-36.65Q181.93-36.65 182.35-36.2 182.78-35.75 182.78-35L182.78-35 182.78-34.3Q182.78-33.55 182.35-33.1 181.93-32.65 180.93-32.65ZM179.53 0L179.53-25.6 182.28-25.6 182.28 0 179.53 0ZM198.68 0.6L198.68 0.6Q193.98 0.6 191.35-2.55 188.73-5.7 188.73-12.8L188.73-12.8Q188.73-19.9 191.35-23.05 193.98-26.2 198.68-26.2L198.68-26.2Q201.98-26.2 204.05-24.7 206.13-23.2 207.13-20.7L207.13-20.7 204.83-19.55Q204.03-21.65 202.58-22.7 201.13-23.75 198.68-23.75L198.68-23.75Q195.18-23.75 193.43-21.53 191.68-19.3 191.68-15.05L191.68-15.05 191.68-10.55Q191.68-6.3 193.43-4.08 195.18-1.85 198.68-1.85L198.68-1.85Q201.23-1.85 202.83-2.95 204.43-4.05 205.38-6.25L205.38-6.25 207.43-4.85Q206.28-2.35 204.13-0.88 201.98 0.6 198.68 0.6ZM219.17 0L215.87 0Q214.32 0 213.65-0.68 212.97-1.35 212.97-2.9L212.97-2.9 212.97-37 215.72-37 215.72-2.4 219.17-2.4 219.17 0ZM233.22 0.6L233.22 0.6Q230.97 0.6 229.1-0.18 227.22-0.95 225.87-2.58 224.52-4.2 223.8-6.73 223.07-9.25 223.07-12.8L223.07-12.8Q223.07-16.35 223.8-18.88 224.52-21.4 225.87-23.03 227.22-24.65 229.1-25.43 230.97-26.2 233.22-26.2L233.22-26.2Q237.77-26.2 240.35-23.05 242.92-19.9 242.92-13.05L242.92-13.05 242.92-12.3 226.02-12.3 226.02-10.55Q226.02-6.3 227.9-4.08 229.77-1.85 233.22-1.85L233.22-1.85Q236.07-1.85 237.8-3.13 239.52-4.4 240.52-6.95L240.52-6.95 242.42-5.65Q241.32-2.7 239.1-1.05 236.87 0.6 233.22 0.6ZM233.22-23.85L233.22-23.85Q229.77-23.85 227.9-21.58 226.02-19.3 226.02-15.05L226.02-15.05 226.02-14.4 239.97-14.4 239.97-15.05Q239.97-19.3 238.3-21.58 236.62-23.85 233.22-23.85ZM255.97 0.6L255.97 0.6Q252.97 0.6 250.82-0.58 248.67-1.75 247.07-4.15L247.07-4.15 249.02-5.75Q250.42-3.65 252.07-2.73 253.72-1.8 255.97-1.8L255.97-1.8Q258.52-1.8 260.02-3.05 261.52-4.3 261.52-6.7L261.52-6.7Q261.52-8.8 260.52-9.98 259.52-11.15 256.92-11.6L256.92-11.6 254.92-11.95Q251.42-12.55 249.64-14.18 247.87-15.8 247.87-19.1L247.87-19.1Q247.87-22.75 250.07-24.48 252.27-26.2 255.77-26.2L255.77-26.2Q258.42-26.2 260.37-25.28 262.32-24.35 263.77-22.35L263.77-22.35 261.97-20.7Q259.67-23.8 255.82-23.8L255.82-23.8Q253.27-23.8 251.92-22.65 250.57-21.5 250.57-19.2L250.57-19.2Q250.57-16.95 251.67-15.9 252.77-14.85 255.32-14.4L255.32-14.4 257.27-14.05Q260.92-13.4 262.57-11.75 264.22-10.1 264.22-6.95L264.22-6.95Q264.22-3.35 262.07-1.38 259.92 0.6 255.97 0.6ZM299.96 0L296.91 0Q294.16 0 294.16-2.7L294.16-2.7 294.16-4.1 293.76-4.1Q293.11-1.85 291.36-0.63 289.61 0.6 286.96 0.6L286.96 0.6Q283.36 0.6 281.46-1.23 279.56-3.05 279.56-6.75L279.56-6.75Q279.56-10.4 281.81-12.35 284.06-14.3 288.61-14.3L288.61-14.3 294.16-14.3 294.16-17.7Q294.16-20.95 292.76-22.35 291.36-23.75 288.41-23.75L288.41-23.75Q286.16-23.75 284.66-22.73 283.16-21.7 282.21-19.6L282.21-19.6 280.41-21.15Q281.41-23.4 283.44-24.8 285.46-26.2 288.51-26.2L288.51-26.2Q292.66-26.2 294.79-24.15 296.91-22.1 296.91-18L296.91-18 296.91-2.4 299.96-2.4 299.96 0ZM287.56-1.8L287.56-1.8Q288.96-1.8 290.16-2.23 291.36-2.65 292.26-3.45 293.16-4.25 293.66-5.33 294.16-6.4 294.16-7.7L294.16-7.7 294.16-12.2 288.56-12.2Q285.56-12.2 283.99-11.03 282.41-9.85 282.41-7.75L282.41-7.75 282.41-6.15Q282.41-4 283.84-2.9 285.26-1.8 287.56-1.8ZM308.06 0L305.31 0 305.31-25.6 308.06-25.6 308.06-21.55 308.46-21.55Q309.16-23.75 310.89-24.98 312.61-26.2 315.36-26.2L315.36-26.2Q318.86-26.2 320.81-23.93 322.76-21.65 322.76-17.1L322.76-17.1 322.76 0 320.01 0 320.01-16.95Q320.01-20.2 318.61-21.98 317.21-23.75 314.36-23.75L314.36-23.75Q313.06-23.75 311.91-23.35 310.76-22.95 309.91-22.18 309.06-21.4 308.56-20.28 308.06-19.15 308.06-17.75L308.06-17.75 308.06 0ZM349.21 0L346.16 0Q343.41 0 343.41-2.7L343.41-2.7 343.41-4.1 343.01-4.1Q342.36-1.85 340.61-0.63 338.86 0.6 336.21 0.6L336.21 0.6Q332.61 0.6 330.71-1.23 328.81-3.05 328.81-6.75L328.81-6.75Q328.81-10.4 331.06-12.35 333.31-14.3 337.86-14.3L337.86-14.3 343.41-14.3 343.41-17.7Q343.41-20.95 342.01-22.35 340.61-23.75 337.66-23.75L337.66-23.75Q335.41-23.75 333.91-22.73 332.41-21.7 331.46-19.6L331.46-19.6 329.66-21.15Q330.66-23.4 332.68-24.8 334.71-26.2 337.76-26.2L337.76-26.2Q341.91-26.2 344.03-24.15 346.16-22.1 346.16-18L346.16-18 346.16-2.4 349.21-2.4 349.21 0ZM336.81-1.8L336.81-1.8Q338.21-1.8 339.41-2.23 340.61-2.65 341.51-3.45 342.41-4.25 342.91-5.33 343.41-6.4 343.41-7.7L343.41-7.7 343.41-12.2 337.81-12.2Q334.81-12.2 333.23-11.03 331.66-9.85 331.66-7.75L331.66-7.75 331.66-6.15Q331.66-4 333.08-2.9 334.51-1.8 336.81-1.8ZM360.76 0L357.46 0Q355.91 0 355.23-0.68 354.56-1.35 354.56-2.9L354.56-2.9 354.56-37 357.31-37 357.31-2.4 360.76-2.4 360.76 0ZM375.6-11.4L380.05-25.6 382.75-25.6 372.15 7.55Q371.7 9 371.05 9.5 370.4 10 368.85 10L368.85 10 365.5 10 365.5 7.6 369.65 7.6 371.55 1.2 363-25.6 365.75-25.6 370.2-11.4 372.7-2.4 373.1-2.4 375.6-11.4ZM394.45 0.6L394.45 0.6Q391.45 0.6 389.3-0.58 387.15-1.75 385.55-4.15L385.55-4.15 387.5-5.75Q388.9-3.65 390.55-2.73 392.2-1.8 394.45-1.8L394.45-1.8Q397-1.8 398.5-3.05 400-4.3 400-6.7L400-6.7Q400-8.8 399-9.98 398-11.15 395.4-11.6L395.4-11.6 393.4-11.95Q389.9-12.55 388.13-14.18 386.35-15.8 386.35-19.1L386.35-19.1Q386.35-22.75 388.55-24.48 390.75-26.2 394.25-26.2L394.25-26.2Q396.9-26.2 398.85-25.28 400.8-24.35 402.25-22.35L402.25-22.35 400.45-20.7Q398.15-23.8 394.3-23.8L394.3-23.8Q391.75-23.8 390.4-22.65 389.05-21.5 389.05-19.2L389.05-19.2Q389.05-16.95 390.15-15.9 391.25-14.85 393.8-14.4L393.8-14.4 395.75-14.05Q399.4-13.4 401.05-11.75 402.7-10.1 402.7-6.95L402.7-6.95Q402.7-3.35 400.55-1.38 398.4 0.6 394.45 0.6ZM417.65 0.6L417.65 0.6Q415.4 0.6 413.52-0.18 411.65-0.95 410.3-2.58 408.95-4.2 408.22-6.73 407.5-9.25 407.5-12.8L407.5-12.8Q407.5-16.35 408.22-18.88 408.95-21.4 410.3-23.03 411.65-24.65 413.52-25.43 415.4-26.2 417.65-26.2L417.65-26.2Q422.2-26.2 424.77-23.05 427.35-19.9 427.35-13.05L427.35-13.05 427.35-12.3 410.45-12.3 410.45-10.55Q410.45-6.3 412.32-4.08 414.2-1.85 417.65-1.85L417.65-1.85Q420.5-1.85 422.22-3.13 423.95-4.4 424.95-6.95L424.95-6.95 426.85-5.65Q425.75-2.7 423.52-1.05 421.3 0.6 417.65 0.6ZM417.65-23.85L417.65-23.85Q414.2-23.85 412.32-21.58 410.45-19.3 410.45-15.05L410.45-15.05 410.45-14.4 424.4-14.4 424.4-15.05Q424.4-19.3 422.72-21.58 421.05-23.85 417.65-23.85ZM436.55 0L433.8 0 433.8-25.6 436.55-25.6 436.55-20.95 436.95-20.95Q437.65-23.1 439.3-24.35 440.95-25.6 443.5-25.6L443.5-25.6 445.1-25.6 445.1-22.9 442.8-22.9Q440.05-22.9 438.3-21.4 436.55-19.9 436.55-17.25L436.55-17.25 436.55 0Z"
                                                                  opacity="1" transform="matrix(1,0,0,1,0,0)"
                                                                  fill="#ffffff" class="slogan-text-1"
                                                                  data-fill-palette-color="secondary"
                                                                  id="text-1"></path>
                                                        </svg>
                                                    </g>
                                                </svg>
                                            </g>
                                        </svg>
                                    </g>
                                </svg>
                            </g>
                            <g transform="matrix(1,0,0,1,106.87733604900463,0)">
                                <svg viewBox="0 0 181.76532790199073 128.38374992332436" height="128.38374992332436"
                                     width="181.76532790199073">
                                    <g>
                                        <svg xmlns="http://www.w3.org/2000/svg" x="8" y="0"
                                             viewBox="27 42 260.3 201.6"
                                             height="128.38374992332436" width="165.76532790199073"
                                             class="icon-icon-0" data-fill-palette-color="accent" id="icon-0">
                                            <path d="M287 221.2V47c0-2.8-2.2-5-5-5H65c-2.8 0-5 2.2-5 5v29H32c-2.8 0-5 2.2-5 5v142c0 1 0.3 2 0.8 2.8 1.6 9.9 10.1 17.2 20.7 17.2h0.1c0.1 0 0.2 0 0.3 0 0 0 0.1 0 0.1 0h16 199c0.7 0.4 1.5 0.6 2.3 0.6 11.6 0 21-9.4 21-21C287.2 222.1 287.1 221.6 287 221.2zM37.5 222.3c0-0.8-0.2-1.6-0.5-2.2V86h23v131.6c-0.6 1-0.9 2.1-0.7 3.4 0.1 0.5 0.1 1.1 0.1 1.7 0 0.5 0 0.7-0.1 1.4-0.8 5.2-5.3 9-10.7 9h-0.1C42.4 233 37.5 228.3 37.5 222.3zM268.7 233.3c-0.5-0.2-1.1-0.3-1.7-0.3H66.5c0.8-1.4 1.5-2.9 2-4.4 0.9-0.9 1.5-2.2 1.5-3.6V52h207v171c0 0.4 0.1 0.8 0.1 1.1C276.5 228.7 273.1 232.3 268.7 233.3zM262 71c0-2.8-2.2-5-5-5H89c-2.8 0-5 2.2-5 5v40c0 2.8 2.2 5 5 5h168c2.8 0 5-2.2 5-5V71zM94 76h157v30H94V76zM178 136c0-2.8-2.2-5-5-5H89c-2.8 0-5 2.2-5 5v57c0 2.8 2.2 5 5 5h84c2.8 0 5-2.2 5-5V136zM94 141h74v47H94V141zM262 136c0 2.8-2.2 5-5 5h-70c-2.8 0-5-2.2-5-5s2.2-5 5-5h70C259.8 131 262 133.2 262 136zM262 164c0 2.8-2.2 5-5 5h-70c-2.8 0-5-2.2-5-5s2.2-5 5-5h70C259.8 159 262 161.2 262 164zM262 193c0 2.8-2.2 5-5 5h-70c-2.8 0-5-2.2-5-5s2.2-5 5-5h70C259.8 188 262 190.2 262 193zM262 214c0 2.8-2.2 5-5 5H89c-2.8 0-5-2.2-5-5s2.2-5 5-5h168C259.8 209 262 211.2 262 214z"
                                                  fill="#ffffff" data-fill-palette-color="accent"></path>
                                        </svg>
                                    </g>
                                </svg>
                            </g>
                            <g>
                                <rect width="106.87733604900463" height="5.159356421841632" y="122.22439350148272"
                                      x="288.64266395099537" fill="#ffffff" data-fill-palette-color="accent"></rect>
                                <rect width="106.87733604900463" height="5.159356421841632" y="122.22439350148272" x="0"
                                      fill="#ffffff" data-fill-palette-color="accent"></rect>
                                <rect width="106.87733604900463" height="5.159356421841632" y="111.90568065779946"
                                      x="288.64266395099537" fill="#ffffff" data-fill-palette-color="accent"></rect>
                                <rect width="106.87733604900463" height="5.159356421841632" y="111.90568065779946" x="0"
                                      fill="#ffffff" data-fill-palette-color="accent"></rect>
                            </g>
                        </svg>
                    </g>
                    <defs></defs>
                </svg>
                <rect width="395.52" height="238.6576992013289" fill="none" stroke="none" visibility="hidden"></rect>
            </g>
        </svg>
    </g>
</svg>
